<mxfile host="app.diagrams.net" modified="2023-06-04T11:41:29.627Z" agent="Mozilla/5.0 (Windows NT 10.0; Win64; x64) AppleWebKit/537.36 (KHTML, like Gecko) Chrome/114.0.0.0 Safari/537.36" etag="vv8mBm5KzjVWKfLpAsU_" version="21.3.7" type="device">
  <diagram name="Страница 1" id="RxROm4cPq067BdehRqiH">
    <mxGraphModel dx="1728" dy="937" grid="1" gridSize="10" guides="1" tooltips="1" connect="1" arrows="1" fold="1" page="1" pageScale="1" pageWidth="827" pageHeight="1169" math="0" shadow="0">
      <root>
        <mxCell id="0" />
        <mxCell id="1" parent="0" />
        <mxCell id="2p6zsz8fZYU_1kap62Ut-1" value="add_car&lt;br&gt;начало" style="strokeWidth=2;html=1;shape=mxgraph.flowchart.terminator;whiteSpace=wrap;" parent="1" vertex="1">
          <mxGeometry x="160" y="40" width="120" height="60" as="geometry" />
        </mxCell>
        <mxCell id="2p6zsz8fZYU_1kap62Ut-2" value="" style="endArrow=none;html=1;rounded=0;edgeStyle=orthogonalEdgeStyle;entryX=0.5;entryY=1;entryDx=0;entryDy=0;entryPerimeter=0;exitX=0.5;exitY=0;exitDx=0;exitDy=0;" parent="1" source="2p6zsz8fZYU_1kap62Ut-3" target="2p6zsz8fZYU_1kap62Ut-1" edge="1">
          <mxGeometry width="50" height="50" relative="1" as="geometry">
            <mxPoint x="220" y="120" as="sourcePoint" />
            <mxPoint x="220" y="120" as="targetPoint" />
            <Array as="points" />
          </mxGeometry>
        </mxCell>
        <mxCell id="2p6zsz8fZYU_1kap62Ut-3" value="error = {OK, &quot; &quot;}" style="rounded=0;whiteSpace=wrap;html=1;" parent="1" vertex="1">
          <mxGeometry x="160" y="120" width="120" height="60" as="geometry" />
        </mxCell>
        <mxCell id="2p6zsz8fZYU_1kap62Ut-4" value="" style="endArrow=none;html=1;rounded=0;edgeStyle=orthogonalEdgeStyle;entryX=0.5;entryY=1;entryDx=0;entryDy=0;exitX=0.5;exitY=0;exitDx=0;exitDy=0;" parent="1" source="2p6zsz8fZYU_1kap62Ut-5" target="2p6zsz8fZYU_1kap62Ut-3" edge="1">
          <mxGeometry width="50" height="50" relative="1" as="geometry">
            <mxPoint x="220" y="200" as="sourcePoint" />
            <mxPoint x="270" y="210" as="targetPoint" />
            <Array as="points" />
          </mxGeometry>
        </mxCell>
        <mxCell id="2p6zsz8fZYU_1kap62Ut-5" value="&lt;br&gt;engines.count&lt;br style=&quot;border-color: var(--border-color); text-align: right;&quot;&gt;&lt;span style=&quot;text-align: right;&quot;&gt;!=0&lt;/span&gt;" style="rhombus;whiteSpace=wrap;html=1;" parent="1" vertex="1">
          <mxGeometry x="160" y="200" width="120" height="60" as="geometry" />
        </mxCell>
        <mxCell id="2p6zsz8fZYU_1kap62Ut-6" value="" style="endArrow=none;html=1;rounded=0;edgeStyle=orthogonalEdgeStyle;entryX=0.5;entryY=1;entryDx=0;entryDy=0;exitX=0.5;exitY=0;exitDx=0;exitDy=0;" parent="1" source="2p6zsz8fZYU_1kap62Ut-26" target="2p6zsz8fZYU_1kap62Ut-5" edge="1">
          <mxGeometry width="50" height="50" relative="1" as="geometry">
            <mxPoint x="220" y="280" as="sourcePoint" />
            <mxPoint x="260" y="300" as="targetPoint" />
            <Array as="points" />
          </mxGeometry>
        </mxCell>
        <mxCell id="2p6zsz8fZYU_1kap62Ut-7" value="Да" style="endArrow=none;html=1;rounded=0;edgeStyle=orthogonalEdgeStyle;entryX=1;entryY=0.5;entryDx=0;entryDy=0;exitX=0.5;exitY=0;exitDx=0;exitDy=0;" parent="1" source="2p6zsz8fZYU_1kap62Ut-10" target="2p6zsz8fZYU_1kap62Ut-5" edge="1">
          <mxGeometry width="50" height="50" relative="1" as="geometry">
            <mxPoint x="380" y="280" as="sourcePoint" />
            <mxPoint x="360" y="260" as="targetPoint" />
            <Array as="points">
              <mxPoint x="380" y="230" />
            </Array>
          </mxGeometry>
        </mxCell>
        <mxCell id="2p6zsz8fZYU_1kap62Ut-10" value="Ввод&lt;br&gt;new_car" style="shape=parallelogram;perimeter=parallelogramPerimeter;whiteSpace=wrap;html=1;fixedSize=1;" parent="1" vertex="1">
          <mxGeometry x="320" y="280" width="120" height="60" as="geometry" />
        </mxCell>
        <mxCell id="2p6zsz8fZYU_1kap62Ut-11" value="" style="endArrow=none;html=1;rounded=0;edgeStyle=orthogonalEdgeStyle;entryX=0.5;entryY=1;entryDx=0;entryDy=0;exitX=0.5;exitY=0;exitDx=0;exitDy=0;" parent="1" source="2p6zsz8fZYU_1kap62Ut-12" target="2p6zsz8fZYU_1kap62Ut-10" edge="1">
          <mxGeometry width="50" height="50" relative="1" as="geometry">
            <mxPoint x="380" y="360" as="sourcePoint" />
            <mxPoint x="390" y="430" as="targetPoint" />
            <Array as="points" />
          </mxGeometry>
        </mxCell>
        <mxCell id="2p6zsz8fZYU_1kap62Ut-12" value="&lt;br&gt;new_component&lt;br&gt;!=0" style="rhombus;whiteSpace=wrap;html=1;" parent="1" vertex="1">
          <mxGeometry x="320" y="360" width="120" height="60" as="geometry" />
        </mxCell>
        <mxCell id="2p6zsz8fZYU_1kap62Ut-13" value="" style="endArrow=none;html=1;rounded=0;edgeStyle=orthogonalEdgeStyle;entryX=0.5;entryY=1;entryDx=0;entryDy=0;exitX=0.5;exitY=0;exitDx=0;exitDy=0;exitPerimeter=0;" parent="1" source="2p6zsz8fZYU_1kap62Ut-28" target="2p6zsz8fZYU_1kap62Ut-12" edge="1">
          <mxGeometry width="50" height="50" relative="1" as="geometry">
            <mxPoint x="380" y="440" as="sourcePoint" />
            <mxPoint x="420" y="460" as="targetPoint" />
            <Array as="points" />
          </mxGeometry>
        </mxCell>
        <mxCell id="2p6zsz8fZYU_1kap62Ut-14" value="Да" style="endArrow=none;html=1;rounded=0;edgeStyle=orthogonalEdgeStyle;entryX=1;entryY=0.5;entryDx=0;entryDy=0;exitX=0.5;exitY=0;exitDx=0;exitDy=0;" parent="1" source="2p6zsz8fZYU_1kap62Ut-18" target="2p6zsz8fZYU_1kap62Ut-12" edge="1">
          <mxGeometry width="50" height="50" relative="1" as="geometry">
            <mxPoint x="540" y="440" as="sourcePoint" />
            <mxPoint x="520" y="420" as="targetPoint" />
            <Array as="points">
              <mxPoint x="540" y="390" />
            </Array>
          </mxGeometry>
        </mxCell>
        <mxCell id="2p6zsz8fZYU_1kap62Ut-18" value="следующий элемент&lt;br&gt;(cars.last) =&lt;br&gt;new_car" style="rounded=0;whiteSpace=wrap;html=1;" parent="1" vertex="1">
          <mxGeometry x="480" y="440" width="120" height="60" as="geometry" />
        </mxCell>
        <mxCell id="2p6zsz8fZYU_1kap62Ut-19" value="" style="endArrow=none;html=1;rounded=0;edgeStyle=orthogonalEdgeStyle;entryX=0.5;entryY=1;entryDx=0;entryDy=0;exitX=0.5;exitY=0;exitDx=0;exitDy=0;" parent="1" source="2p6zsz8fZYU_1kap62Ut-20" target="2p6zsz8fZYU_1kap62Ut-18" edge="1">
          <mxGeometry width="50" height="50" relative="1" as="geometry">
            <mxPoint x="540" y="520" as="sourcePoint" />
            <mxPoint x="590" y="530" as="targetPoint" />
            <Array as="points" />
          </mxGeometry>
        </mxCell>
        <mxCell id="2p6zsz8fZYU_1kap62Ut-20" value="new_car.id =&lt;br&gt;cars.last.id + 1" style="rounded=0;whiteSpace=wrap;html=1;" parent="1" vertex="1">
          <mxGeometry x="480" y="520" width="120" height="60" as="geometry" />
        </mxCell>
        <mxCell id="2p6zsz8fZYU_1kap62Ut-21" value="" style="endArrow=none;html=1;rounded=0;edgeStyle=orthogonalEdgeStyle;entryX=0.5;entryY=1;entryDx=0;entryDy=0;exitX=0.5;exitY=0;exitDx=0;exitDy=0;" parent="1" source="2p6zsz8fZYU_1kap62Ut-22" target="2p6zsz8fZYU_1kap62Ut-20" edge="1">
          <mxGeometry width="50" height="50" relative="1" as="geometry">
            <mxPoint x="540" y="600" as="sourcePoint" />
            <mxPoint x="590" y="610" as="targetPoint" />
            <Array as="points" />
          </mxGeometry>
        </mxCell>
        <mxCell id="2p6zsz8fZYU_1kap62Ut-22" value="cars.last =&lt;br&gt;new_car&lt;br&gt;&lt;br&gt;cars.count ++" style="rounded=0;whiteSpace=wrap;html=1;" parent="1" vertex="1">
          <mxGeometry x="480" y="600" width="120" height="60" as="geometry" />
        </mxCell>
        <mxCell id="2p6zsz8fZYU_1kap62Ut-23" value="" style="endArrow=none;html=1;rounded=0;edgeStyle=orthogonalEdgeStyle;entryX=0.5;entryY=1;entryDx=0;entryDy=0;exitX=0.5;exitY=0;exitDx=0;exitDy=0;" parent="1" source="2p6zsz8fZYU_1kap62Ut-91" target="2p6zsz8fZYU_1kap62Ut-22" edge="1">
          <mxGeometry width="50" height="50" relative="1" as="geometry">
            <mxPoint x="220" y="700" as="sourcePoint" />
            <mxPoint x="590" y="690" as="targetPoint" />
            <Array as="points">
              <mxPoint x="220" y="680" />
              <mxPoint x="540" y="680" />
            </Array>
          </mxGeometry>
        </mxCell>
        <mxCell id="2p6zsz8fZYU_1kap62Ut-26" value="Вывод ошибки" style="shape=parallelogram;perimeter=parallelogramPerimeter;whiteSpace=wrap;html=1;fixedSize=1;" parent="1" vertex="1">
          <mxGeometry x="160" y="280" width="120" height="60" as="geometry" />
        </mxCell>
        <mxCell id="2p6zsz8fZYU_1kap62Ut-27" value="" style="endArrow=none;html=1;rounded=0;edgeStyle=orthogonalEdgeStyle;entryX=0.5;entryY=1;entryDx=0;entryDy=0;exitX=0.5;exitY=0;exitDx=0;exitDy=0;" parent="1" source="2p6zsz8fZYU_1kap62Ut-91" target="2p6zsz8fZYU_1kap62Ut-26" edge="1">
          <mxGeometry width="50" height="50" relative="1" as="geometry">
            <mxPoint x="220" y="700" as="sourcePoint" />
            <mxPoint x="230" y="430" as="targetPoint" />
            <Array as="points" />
          </mxGeometry>
        </mxCell>
        <mxCell id="2p6zsz8fZYU_1kap62Ut-28" value="error.status_code =&lt;br&gt;MEMORY_&lt;br&gt;ALLOCATION_&lt;br&gt;ERROR" style="rounded=0;whiteSpace=wrap;html=1;" parent="1" vertex="1">
          <mxGeometry x="320" y="440" width="120" height="60" as="geometry" />
        </mxCell>
        <mxCell id="2p6zsz8fZYU_1kap62Ut-29" value="" style="endArrow=none;html=1;rounded=0;edgeStyle=orthogonalEdgeStyle;entryX=0.5;entryY=1;entryDx=0;entryDy=0;exitX=0.5;exitY=0;exitDx=0;exitDy=0;" parent="1" source="2p6zsz8fZYU_1kap62Ut-91" target="2p6zsz8fZYU_1kap62Ut-28" edge="1">
          <mxGeometry width="50" height="50" relative="1" as="geometry">
            <mxPoint x="220" y="700" as="sourcePoint" />
            <mxPoint x="430" y="530" as="targetPoint" />
            <Array as="points">
              <mxPoint x="220" y="680" />
              <mxPoint x="380" y="680" />
            </Array>
          </mxGeometry>
        </mxCell>
        <mxCell id="2p6zsz8fZYU_1kap62Ut-34" value="add_engine&lt;br&gt;начало" style="strokeWidth=2;html=1;shape=mxgraph.flowchart.terminator;whiteSpace=wrap;" parent="1" vertex="1">
          <mxGeometry x="200" y="1200" width="120" height="60" as="geometry" />
        </mxCell>
        <mxCell id="2p6zsz8fZYU_1kap62Ut-35" value="" style="endArrow=none;html=1;rounded=0;edgeStyle=orthogonalEdgeStyle;entryX=0.5;entryY=1;entryDx=0;entryDy=0;entryPerimeter=0;exitX=0.5;exitY=0;exitDx=0;exitDy=0;" parent="1" source="2p6zsz8fZYU_1kap62Ut-36" target="2p6zsz8fZYU_1kap62Ut-34" edge="1">
          <mxGeometry width="50" height="50" relative="1" as="geometry">
            <mxPoint x="260" y="1280" as="sourcePoint" />
            <mxPoint x="260" y="1280" as="targetPoint" />
            <Array as="points" />
          </mxGeometry>
        </mxCell>
        <mxCell id="2p6zsz8fZYU_1kap62Ut-36" value="error = {OK, &quot; &quot;}" style="rounded=0;whiteSpace=wrap;html=1;" parent="1" vertex="1">
          <mxGeometry x="200" y="1280" width="120" height="60" as="geometry" />
        </mxCell>
        <mxCell id="2p6zsz8fZYU_1kap62Ut-43" value="Ввод&lt;br&gt;new_engine" style="shape=parallelogram;perimeter=parallelogramPerimeter;whiteSpace=wrap;html=1;fixedSize=1;" parent="1" vertex="1">
          <mxGeometry x="200" y="1360" width="120" height="60" as="geometry" />
        </mxCell>
        <mxCell id="2p6zsz8fZYU_1kap62Ut-44" value="" style="endArrow=none;html=1;rounded=0;edgeStyle=orthogonalEdgeStyle;entryX=0.5;entryY=1;entryDx=0;entryDy=0;exitX=0.5;exitY=0;exitDx=0;exitDy=0;" parent="1" source="2p6zsz8fZYU_1kap62Ut-45" target="2p6zsz8fZYU_1kap62Ut-43" edge="1">
          <mxGeometry width="50" height="50" relative="1" as="geometry">
            <mxPoint x="260" y="1440" as="sourcePoint" />
            <mxPoint x="270" y="1510" as="targetPoint" />
            <Array as="points" />
          </mxGeometry>
        </mxCell>
        <mxCell id="2p6zsz8fZYU_1kap62Ut-45" value="new_engine&lt;br&gt;!=0" style="rhombus;whiteSpace=wrap;html=1;" parent="1" vertex="1">
          <mxGeometry x="200" y="1440" width="120" height="60" as="geometry" />
        </mxCell>
        <mxCell id="2p6zsz8fZYU_1kap62Ut-46" value="" style="endArrow=none;html=1;rounded=0;edgeStyle=orthogonalEdgeStyle;entryX=0.5;entryY=1;entryDx=0;entryDy=0;exitX=0.5;exitY=0;exitDx=0;exitDy=0;exitPerimeter=0;" parent="1" source="2p6zsz8fZYU_1kap62Ut-56" target="2p6zsz8fZYU_1kap62Ut-45" edge="1">
          <mxGeometry width="50" height="50" relative="1" as="geometry">
            <mxPoint x="260" y="1520" as="sourcePoint" />
            <mxPoint x="300" y="1540" as="targetPoint" />
            <Array as="points" />
          </mxGeometry>
        </mxCell>
        <mxCell id="2p6zsz8fZYU_1kap62Ut-47" value="Да" style="endArrow=none;html=1;rounded=0;edgeStyle=orthogonalEdgeStyle;entryX=1;entryY=0.5;entryDx=0;entryDy=0;exitX=0.5;exitY=0;exitDx=0;exitDy=0;" parent="1" source="2p6zsz8fZYU_1kap62Ut-48" target="2p6zsz8fZYU_1kap62Ut-45" edge="1">
          <mxGeometry width="50" height="50" relative="1" as="geometry">
            <mxPoint x="420" y="1520" as="sourcePoint" />
            <mxPoint x="400" y="1500" as="targetPoint" />
            <Array as="points">
              <mxPoint x="420" y="1470" />
            </Array>
          </mxGeometry>
        </mxCell>
        <mxCell id="2p6zsz8fZYU_1kap62Ut-48" value="следующий элемент&lt;br&gt;(engines.last) =&lt;br&gt;new_engine" style="rounded=0;whiteSpace=wrap;html=1;" parent="1" vertex="1">
          <mxGeometry x="360" y="1520" width="120" height="60" as="geometry" />
        </mxCell>
        <mxCell id="2p6zsz8fZYU_1kap62Ut-49" value="" style="endArrow=none;html=1;rounded=0;edgeStyle=orthogonalEdgeStyle;entryX=0.5;entryY=1;entryDx=0;entryDy=0;exitX=0.5;exitY=0;exitDx=0;exitDy=0;" parent="1" source="2p6zsz8fZYU_1kap62Ut-50" target="2p6zsz8fZYU_1kap62Ut-48" edge="1">
          <mxGeometry width="50" height="50" relative="1" as="geometry">
            <mxPoint x="420" y="1600" as="sourcePoint" />
            <mxPoint x="470" y="1610" as="targetPoint" />
            <Array as="points" />
          </mxGeometry>
        </mxCell>
        <mxCell id="2p6zsz8fZYU_1kap62Ut-50" value="new_engine.id =&lt;br&gt;engines.last.id + 1" style="rounded=0;whiteSpace=wrap;html=1;" parent="1" vertex="1">
          <mxGeometry x="360" y="1600" width="120" height="60" as="geometry" />
        </mxCell>
        <mxCell id="2p6zsz8fZYU_1kap62Ut-51" value="" style="endArrow=none;html=1;rounded=0;edgeStyle=orthogonalEdgeStyle;entryX=0.5;entryY=1;entryDx=0;entryDy=0;exitX=0.5;exitY=0;exitDx=0;exitDy=0;" parent="1" source="2p6zsz8fZYU_1kap62Ut-52" target="2p6zsz8fZYU_1kap62Ut-50" edge="1">
          <mxGeometry width="50" height="50" relative="1" as="geometry">
            <mxPoint x="420" y="1680" as="sourcePoint" />
            <mxPoint x="470" y="1690" as="targetPoint" />
            <Array as="points" />
          </mxGeometry>
        </mxCell>
        <mxCell id="2p6zsz8fZYU_1kap62Ut-52" value="&lt;div style=&quot;border-color: var(--border-color); text-align: right;&quot;&gt;engines.last =&amp;nbsp; &amp;nbsp;&lt;/div&gt;&lt;span style=&quot;border-color: var(--border-color);&quot;&gt;new_engine&lt;br&gt;&lt;/span&gt;&lt;span style=&quot;border-color: var(--border-color);&quot;&gt;engines&lt;/span&gt;&lt;span style=&quot;border-color: var(--border-color);&quot;&gt;.count ++&lt;/span&gt;" style="rounded=0;whiteSpace=wrap;html=1;" parent="1" vertex="1">
          <mxGeometry x="360" y="1680" width="120" height="60" as="geometry" />
        </mxCell>
        <mxCell id="2p6zsz8fZYU_1kap62Ut-56" value="error.status_code =&lt;br&gt;MEMORY_&lt;br&gt;ALLOCATION_&lt;br&gt;ERROR" style="rounded=0;whiteSpace=wrap;html=1;" parent="1" vertex="1">
          <mxGeometry x="200" y="1520" width="120" height="60" as="geometry" />
        </mxCell>
        <mxCell id="2p6zsz8fZYU_1kap62Ut-61" value="" style="endArrow=none;html=1;rounded=0;edgeStyle=orthogonalEdgeStyle;entryX=0.5;entryY=1;entryDx=0;entryDy=0;exitX=0.5;exitY=0;exitDx=0;exitDy=0;" parent="1" source="2p6zsz8fZYU_1kap62Ut-43" target="2p6zsz8fZYU_1kap62Ut-36" edge="1">
          <mxGeometry width="50" height="50" relative="1" as="geometry">
            <mxPoint x="120" y="1570" as="sourcePoint" />
            <mxPoint x="170" y="1520" as="targetPoint" />
          </mxGeometry>
        </mxCell>
        <mxCell id="2p6zsz8fZYU_1kap62Ut-62" value="" style="endArrow=none;html=1;rounded=0;edgeStyle=orthogonalEdgeStyle;entryX=0.5;entryY=1;entryDx=0;entryDy=0;exitX=0.5;exitY=0;exitDx=0;exitDy=0;" parent="1" source="2p6zsz8fZYU_1kap62Ut-88" target="2p6zsz8fZYU_1kap62Ut-56" edge="1">
          <mxGeometry width="50" height="50" relative="1" as="geometry">
            <mxPoint x="260" y="1760" as="sourcePoint" />
            <mxPoint x="270" y="1650" as="targetPoint" />
          </mxGeometry>
        </mxCell>
        <mxCell id="2p6zsz8fZYU_1kap62Ut-63" value="" style="endArrow=none;html=1;rounded=0;edgeStyle=orthogonalEdgeStyle;entryX=0.5;entryY=1;entryDx=0;entryDy=0;exitX=0.5;exitY=0;exitDx=0;exitDy=0;" parent="1" source="2p6zsz8fZYU_1kap62Ut-88" target="2p6zsz8fZYU_1kap62Ut-52" edge="1">
          <mxGeometry width="50" height="50" relative="1" as="geometry">
            <mxPoint x="290" y="1760" as="sourcePoint" />
            <mxPoint x="450" y="1770" as="targetPoint" />
            <Array as="points">
              <mxPoint x="260" y="1760" />
              <mxPoint x="420" y="1760" />
            </Array>
          </mxGeometry>
        </mxCell>
        <mxCell id="2p6zsz8fZYU_1kap62Ut-88" value="Вывод&lt;br&gt;error" style="shape=parallelogram;perimeter=parallelogramPerimeter;whiteSpace=wrap;html=1;fixedSize=1;" parent="1" vertex="1">
          <mxGeometry x="200" y="1780" width="120" height="60" as="geometry" />
        </mxCell>
        <mxCell id="2p6zsz8fZYU_1kap62Ut-89" value="add_engine&lt;br style=&quot;border-color: var(--border-color);&quot;&gt;конец" style="strokeWidth=2;html=1;shape=mxgraph.flowchart.terminator;whiteSpace=wrap;" parent="1" vertex="1">
          <mxGeometry x="200" y="1860" width="120" height="60" as="geometry" />
        </mxCell>
        <mxCell id="2p6zsz8fZYU_1kap62Ut-90" value="" style="endArrow=none;html=1;rounded=0;edgeStyle=orthogonalEdgeStyle;entryX=0.5;entryY=1;entryDx=0;entryDy=0;exitX=0.5;exitY=0;exitDx=0;exitDy=0;exitPerimeter=0;" parent="1" source="2p6zsz8fZYU_1kap62Ut-89" target="2p6zsz8fZYU_1kap62Ut-88" edge="1">
          <mxGeometry width="50" height="50" relative="1" as="geometry">
            <mxPoint x="190" y="1860" as="sourcePoint" />
            <mxPoint x="270" y="1870" as="targetPoint" />
          </mxGeometry>
        </mxCell>
        <mxCell id="2p6zsz8fZYU_1kap62Ut-91" value="Вывод&lt;br&gt;error" style="shape=parallelogram;perimeter=parallelogramPerimeter;whiteSpace=wrap;html=1;fixedSize=1;" parent="1" vertex="1">
          <mxGeometry x="160" y="700" width="120" height="60" as="geometry" />
        </mxCell>
        <mxCell id="2p6zsz8fZYU_1kap62Ut-92" value="add_car&lt;br style=&quot;border-color: var(--border-color);&quot;&gt;конец" style="strokeWidth=2;html=1;shape=mxgraph.flowchart.terminator;whiteSpace=wrap;" parent="1" vertex="1">
          <mxGeometry x="160" y="780" width="120" height="60" as="geometry" />
        </mxCell>
        <mxCell id="2p6zsz8fZYU_1kap62Ut-93" value="" style="endArrow=none;html=1;rounded=0;edgeStyle=orthogonalEdgeStyle;entryX=0.5;entryY=1;entryDx=0;entryDy=0;exitX=0.5;exitY=0;exitDx=0;exitDy=0;exitPerimeter=0;" parent="1" source="2p6zsz8fZYU_1kap62Ut-92" target="2p6zsz8fZYU_1kap62Ut-91" edge="1">
          <mxGeometry width="50" height="50" relative="1" as="geometry">
            <mxPoint x="80" y="810" as="sourcePoint" />
            <mxPoint x="130" y="760" as="targetPoint" />
          </mxGeometry>
        </mxCell>
      </root>
    </mxGraphModel>
  </diagram>
</mxfile>
